<?xml version="1.0" encoding="UTF-8"?>
<svg xmlns="http://www.w3.org/2000/svg" version="1.1" viewBox="0 0 144 144">
  <defs>
    <style>
      .cls-1 {
        fill: none;
        stroke: #fff;
        stroke-miterlimit: 10;
        stroke-width: 8px;
      }

      .cls-2 {
        fill: #fff;
      }
    </style>
  </defs>
  <!-- Generator: Adobe Illustrator 28.7.9, SVG Export Plug-In . SVG Version: 1.2.0 Build 218)  -->
  <g>
    <g id="Layer_1">
      <rect class="cls-2" x="67.3" y="15.9" width="10.3" height="10.3"/>
      <rect class="cls-2" x="63.9" y="2.1" width="17.2" height="17.2" rx=".7" ry=".7"/>
      <rect class="cls-2" x="30.6" y="32.5" width="6.5" height="6.5" transform="translate(-15.3 34.4) rotate(-45)"/>
      <circle class="cls-1" cx="72" cy="82" r="55"/>
      <rect class="cls-2" x="22.1" y="24" width="12.1" height="12.1" rx=".7" ry=".7" transform="translate(-13 28.7) rotate(-45)"/>
      <path class="cls-2" d="M114.2,81.6c0-17.4-11-33-27.3-39.1s-9.5-2.5-14.4-2.6-3.2,5,0,5c15.1,0,29.2,9.6,34.4,23.9s2.2,8.4,2.3,12.7,5,3.2,5,0h0Z"/>
    </g>
  </g>
</svg>