<?xml version="1.0" encoding="UTF-8"?>
<svg xmlns="http://www.w3.org/2000/svg" version="1.1" viewBox="0 0 144 144">
  <defs>
    <style>
      .cls-1 {
        stroke-width: 8px;
      }

      .cls-1, .cls-2 {
        stroke: #fff;
      }

      .cls-1, .cls-2, .cls-3, .cls-4 {
        fill: none;
        stroke-miterlimit: 10;
      }

      .cls-5, .cls-6 {
        fill: #fff;
      }

      .cls-2, .cls-3, .cls-4 {
        stroke-width: 5px;
      }

      .cls-3 {
        stroke: #5de03d;
      }

      .cls-6 {
        font-family: Roboto-Regular, Roboto;
        font-size: 34px;
      }

      .cls-7 {
        fill: #11230a;
      }

      .cls-8 {
        fill: #1f1e1e;
      }

      .cls-4 {
        stroke: #141414;
      }

      .cls-9 {
        fill: #0a0a0a;
      }

      .cls-10 {
        fill: #75dd3e;
      }
    </style>
  </defs>
  <!-- Generator: Adobe Illustrator 28.7.9, SVG Export Plug-In . SVG Version: 1.2.0 Build 218)  -->
  <g>
    <g id="Layer_1">
      <rect class="cls-7" x="-510.6" y="-3.6" width="147.6" height="147.6"/>
      <rect class="cls-10" x="-440.8" y="15.2" width="9" height="9"/>
      <rect class="cls-10" x="-443.8" y="3.2" width="15" height="15" rx="-206.9" ry="-206.9"/>
      <rect class="cls-10" x="-481.1" y="35" width="5.7" height="5.7" transform="translate(-166.8 -327.1) rotate(-45)"/>
      <circle class="cls-3" cx="-436.8" cy="80.2" r="55"/>
      <rect class="cls-10" x="-486.6" y="29.4" width="10.5" height="10.5" rx="-232.8" ry="-232.8" transform="translate(-165.5 -330.2) rotate(-45)"/>
      <rect x="-684.6" y="-3.6" width="147.6" height="147.6"/>
      <rect class="cls-8" x="-614.8" y="15.2" width="9" height="9"/>
      <rect class="cls-8" x="-617.8" y="3.2" width="15" height="15" rx="-293.9" ry="-293.9"/>
      <rect class="cls-8" x="-655.1" y="35" width="5.7" height="5.7" transform="translate(-217.8 -450.2) rotate(-45)"/>
      <circle class="cls-4" cx="-610.8" cy="80.2" r="55"/>
      <rect class="cls-8" x="-662.5" y="27.6" width="10.5" height="10.5" rx="-320.8" ry="-320.8" transform="translate(-215.7 -455.1) rotate(-45)"/>
      <path class="cls-9" d="M-608.8,50.7s-.8,0-1.7.1c-1.7,0-2.4.1-3.2.3-.2,0-.6,0-.9.1-.2,0-.6.1-.9.2s-.7.1-.9.2c-.6,0-2.5.7-3.7,1.2-5.5,2.3-8.9,5.6-10.6,10.1-.3.8-.8,2.9-.9,3.8,0,.7,0,3.9,0,4.3,0,.2,0,.6.1,1,.3,2.2,1.2,4.5,2.4,6.2,2.7,3.7,7.3,6.1,16.6,8.5,2.7.7,4.9,1.6,5.7,2.3.5.4.9,1.2.9,1.7,0,1.1-.4,1.8-1.5,2.3-1.4.7-4.8.7-7.8.2-1.2-.2-3.3-.9-4.6-1.5-1.5-.7-4.5-2.7-4.8-3.2,0,0-.3-.3-.5-.5l-.4-.4-2.8,2.8c-1.5,1.6-4,4-5.4,5.4l-2.6,2.6.7.7c3.6,3.5,7.7,5.8,13.4,7.7,1.4.5,3.2,1,3.9,1.1.2,0,.5.1.7.2.4,0,1.7.3,2.6.4,2.2.3,7.7.3,10,0,8.9-1.1,15.2-5.6,17.3-12.2.8-2.6,1-6.3.4-9.8-.1-.8-.6-2.1-1.2-3.3-1.7-3.4-4.1-5.6-8.5-7.8-1.8-.9-6-2.4-7.9-2.8-1.2-.2-4.3-1.3-5.4-1.7-1.7-.8-2.3-1.5-2.3-2.7,0-1,.9-1.9,2.2-2.3.7-.2,3.7-.3,4.6-.1,1.6.3,4.1,1.1,5.4,1.7.9.5,2.5,1.7,3.6,2.6l.9.8,5.4-5.4c4.8-4.9,5.4-5.4,5.2-5.6-.5-.6-.7-.9-1.1-1.2-3.1-3.1-6.5-5.1-11.6-6.6-3.2-1-5.5-1.4-8.8-1.6-.7,0-1.6,0-2-.1-.3,0-.6,0-.6,0"/>
      <rect class="cls-5" x="-97.4" y="175.9" width="9" height="9"/>
      <rect class="cls-5" x="-100.4" y="163.9" width="15" height="15" rx="-35.2" ry="-35.2"/>
      <rect class="cls-5" x="-137.8" y="195.6" width="5.7" height="5.7" transform="translate(-179.9 -37.3) rotate(-45)"/>
      <circle class="cls-2" cx="-93.4" cy="240.9" r="55"/>
      <rect class="cls-5" x="-145.2" y="188.3" width="10.5" height="10.5" rx="-62.1" ry="-62.1" transform="translate(-177.8 -42.3) rotate(-45)"/>
      <rect class="cls-5" x="-266" y="175.9" width="9" height="9"/>
      <rect class="cls-5" x="-269" y="163.9" width="15" height="15" rx="-119.5" ry="-119.5"/>
      <rect class="cls-5" x="-306.3" y="195.6" width="5.7" height="5.7" transform="translate(-229.2 -156.5) rotate(-45)"/>
      <circle class="cls-2" cx="-262" cy="240.9" r="55"/>
      <rect class="cls-5" x="-313.7" y="188.3" width="10.5" height="10.5" rx="-146.3" ry="-146.3" transform="translate(-227.2 -161.4) rotate(-45)"/>
      <rect class="cls-5" x="-98.1" y="15.9" width="10.3" height="10.3"/>
      <rect class="cls-5" x="-101.6" y="2.1" width="17.2" height="17.2" rx="-33.5" ry="-33.5"/>
      <rect class="cls-5" x="-134.9" y="32.5" width="6.5" height="6.5" transform="translate(-63.8 -82.6) rotate(-45)"/>
      <circle class="cls-1" cx="-93.4" cy="82" r="55"/>
      <rect class="cls-5" x="-143.3" y="24" width="12.1" height="12.1" rx="-59.6" ry="-59.6" transform="translate(-61.4 -88.3) rotate(-45)"/>
      <rect x="-3.6" y="-3.6" width="151.3" height="151.3"/>
      <rect class="cls-5" x="68" y="24.1" width="8.8" height="8.8"/>
      <rect class="cls-5" x="65.1" y="12.3" width="14.7" height="14.7" rx=".7" ry=".7"/>
      <rect class="cls-5" x="36.6" y="38.2" width="5.6" height="5.6" transform="translate(-17.4 39.8) rotate(-45)"/>
      <circle class="cls-1" cx="72" cy="80.5" r="47"/>
      <rect class="cls-5" x="29.4" y="31" width="10.3" height="10.3" rx=".7" ry=".7" transform="translate(-15.4 35) rotate(-45)"/>
      <text class="cls-6" transform="translate(-135.2 252.6)"><tspan x="0" y="0">00:00</tspan></text>
      <path class="cls-5" d="M-51.3,81.6c0-17.4-11-33-27.3-39.1-4.6-1.7-9.5-2.5-14.4-2.6s-3.2,5,0,5c15.1,0,29.2,9.6,34.4,23.9,1.5,4.1,2.2,8.4,2.3,12.7,0,3.2,5,3.2,5,0h0Z"/>
      <path class="cls-5" d="M72.2,55.6s-.6,0-1.4,0c-1.4,0-2.1.1-2.7.2-.2,0-.5,0-.7.1-.2,0-.5,0-.7.1s-.6.1-.8.2c-.5,0-2.2.6-3.1,1.1-4.7,2-7.6,4.8-9.1,8.6-.3.7-.7,2.5-.7,3.3,0,.6,0,3.3,0,3.7,0,.1,0,.5.1.9.2,1.9,1,3.8,2,5.3,2.3,3.2,6.3,5.2,14.2,7.3,2.3.6,4.2,1.4,4.9,2,.4.4.8,1,.8,1.5,0,.9-.3,1.6-1.2,2-1.2.6-4.1.6-6.7.2-1-.2-2.8-.8-3.9-1.3-1.2-.6-3.8-2.3-4.1-2.7,0,0-.2-.3-.4-.4l-.3-.3-2.4,2.4c-1.3,1.3-3.4,3.4-4.6,4.7l-2.2,2.2.6.6c3.1,3,6.5,4.9,11.5,6.6,1.2.4,2.7.8,3.3.9.1,0,.4,0,.6.1.4,0,1.5.3,2.2.4,1.9.3,6.6.3,8.6,0,7.6-1,13-4.8,14.8-10.4.7-2.2.8-5.4.3-8.3-.1-.7-.5-1.8-1-2.8-1.5-2.9-3.5-4.8-7.3-6.7-1.5-.8-5.2-2-6.8-2.4-1-.2-3.7-1.1-4.6-1.5-1.4-.7-2-1.3-2-2.3,0-.9.8-1.6,1.9-1.9.6-.2,3.1-.3,4-.1,1.4.2,3.5.9,4.6,1.5.8.4,2.1,1.4,3,2.3l.8.7,4.6-4.6c4.1-4.2,4.6-4.7,4.5-4.8-.4-.5-.6-.7-.9-1-2.7-2.7-5.6-4.3-9.9-5.7-2.7-.8-4.7-1.2-7.5-1.4-.6,0-1.4,0-1.7-.1-.3,0-.5,0-.5,0"/>
      <rect class="cls-5" x="-268.5" y="14.1" width="10.3" height="10.3"/>
      <rect class="cls-5" x="-271.9" y=".3" width="17.2" height="17.2" rx="-118.7" ry="-118.7"/>
      <rect class="cls-5" x="-305.2" y="30.6" width="6.5" height="6.5" transform="translate(-112.4 -203.6) rotate(-45)"/>
      <circle class="cls-1" cx="-263.8" cy="80.2" r="55"/>
      <rect class="cls-5" x="-313.7" y="22.2" width="12.1" height="12.1" rx="-144.8" ry="-144.8" transform="translate(-110 -209.3) rotate(-45)"/>
      <path class="cls-5" d="M-263.6,51s-.8,0-1.7.1c-1.7,0-2.4.1-3.2.3-.2,0-.6,0-.9.1-.2,0-.6.1-.9.2s-.7.1-.9.2c-.6,0-2.5.7-3.7,1.2-5.5,2.3-8.9,5.6-10.6,10.1-.3.8-.8,2.9-.9,3.8,0,.7,0,3.9,0,4.3,0,.2,0,.6.1,1,.3,2.2,1.2,4.5,2.4,6.2,2.7,3.7,7.3,6.1,16.6,8.5,2.7.7,4.9,1.6,5.7,2.3.5.4.9,1.2.9,1.7,0,1.1-.4,1.8-1.5,2.3-1.4.7-4.8.7-7.8.2-1.2-.2-3.3-.9-4.6-1.5-1.5-.7-4.5-2.7-4.8-3.2,0,0-.3-.3-.5-.5l-.4-.4-2.8,2.8c-1.5,1.6-4,4-5.4,5.4l-2.6,2.6.7.7c3.6,3.5,7.7,5.8,13.4,7.7,1.4.5,3.2,1,3.9,1.1.2,0,.5.1.7.2.4,0,1.7.3,2.6.4,2.2.3,7.7.3,10,0,8.9-1.1,15.2-5.6,17.3-12.2.8-2.6,1-6.3.4-9.8-.1-.8-.6-2.1-1.2-3.3-1.7-3.4-4.1-5.6-8.5-7.8-1.8-.9-6-2.4-7.9-2.8-1.2-.2-4.3-1.3-5.4-1.7-1.7-.8-2.3-1.5-2.3-2.7,0-1,.9-1.9,2.2-2.3.7-.2,3.7-.3,4.6-.1,1.6.3,4.1,1.1,5.4,1.7.9.5,2.5,1.7,3.6,2.6l.9.8,5.4-5.4c4.8-4.9,5.4-5.4,5.2-5.6-.5-.6-.7-.9-1.1-1.2-3.1-3.1-6.5-5.1-11.6-6.6-3.2-1-5.5-1.4-8.8-1.6-.7,0-1.6,0-2-.1-.3,0-.6,0-.6,0"/>
    </g>
  </g>
</svg>