<?xml version="1.0" encoding="UTF-8"?>
<svg xmlns="http://www.w3.org/2000/svg" version="1.1" viewBox="0 0 144 144">
  <defs>
    <style>
      .cls-1 {
        fill: none;
        stroke: #fff;
        stroke-miterlimit: 10;
        stroke-width: 8px;
      }

      .cls-2 {
        fill: #fff;
      }
    </style>
  </defs>
  <!-- Generator: Adobe Illustrator 28.7.9, SVG Export Plug-In . SVG Version: 1.2.0 Build 218)  -->
  <g>
    <g id="Layer_1">
      <rect class="cls-2" x="67.3" y="15.9" width="10.3" height="10.3"/>
      <rect class="cls-2" x="63.9" y="2.1" width="17.2" height="17.2" rx=".7" ry=".7"/>
      <rect class="cls-2" x="30.6" y="32.5" width="6.5" height="6.5" transform="translate(-15.3 34.4) rotate(-45)"/>
      <circle class="cls-1" cx="72" cy="82" r="55"/>
      <rect class="cls-2" x="22.1" y="24" width="12.1" height="12.1" rx=".7" ry=".7" transform="translate(-13 28.7) rotate(-45)"/>
      <path class="cls-2" d="M72.2,52.8s-.8,0-1.7.1c-1.7,0-2.4.1-3.2.3-.2,0-.6,0-.9.1-.2,0-.6.1-.9.2s-.7.1-.9.2c-.6,0-2.5.7-3.7,1.2-5.5,2.3-8.9,5.6-10.6,10.1-.3.8-.8,2.9-.9,3.8,0,.7,0,3.9,0,4.3,0,.2,0,.6.1,1,.3,2.2,1.2,4.5,2.4,6.2,2.7,3.7,7.3,6.1,16.6,8.5,2.7.7,4.9,1.6,5.7,2.3.5.4.9,1.2.9,1.7,0,1.1-.4,1.8-1.5,2.3-1.4.7-4.8.7-7.8.2-1.2-.2-3.3-.9-4.6-1.5-1.5-.7-4.5-2.7-4.8-3.2,0,0-.3-.3-.5-.5l-.4-.4-2.8,2.8c-1.5,1.6-4,4-5.4,5.4l-2.6,2.6.7.7c3.6,3.5,7.7,5.8,13.4,7.7,1.4.5,3.2,1,3.9,1.1.2,0,.5.1.7.2.4,0,1.7.3,2.6.4,2.2.3,7.7.3,10,0,8.9-1.1,15.2-5.6,17.3-12.2.8-2.6,1-6.3.4-9.8-.1-.8-.6-2.1-1.2-3.3-1.7-3.4-4.1-5.6-8.5-7.8-1.8-.9-6-2.4-7.9-2.8-1.2-.2-4.3-1.3-5.4-1.7-1.7-.8-2.3-1.5-2.3-2.7,0-1,.9-1.9,2.2-2.3.7-.2,3.7-.3,4.6-.1,1.6.3,4.1,1.1,5.4,1.7.9.5,2.5,1.7,3.6,2.6l.9.8,5.4-5.4c4.8-4.9,5.4-5.4,5.2-5.6-.5-.6-.7-.9-1.1-1.2-3.1-3.1-6.5-5.1-11.6-6.6-3.2-1-5.5-1.4-8.8-1.6-.7,0-1.6,0-2-.1-.3,0-.6,0-.6,0"/>
    </g>
  </g>
</svg>