<?xml version="1.0" encoding="UTF-8"?>
<svg xmlns="http://www.w3.org/2000/svg" version="1.1" viewBox="0 0 144 144">
  <defs>
    <style>
      .cls-1 {
        fill: none;
        stroke: #fff;
        stroke-miterlimit: 10;
        stroke-width: 8px;
      }

      .cls-2 {
        fill: #fff;
      }
    </style>
  </defs>
  <!-- Generator: Adobe Illustrator 28.7.9, SVG Export Plug-In . SVG Version: 1.2.0 Build 218)  -->
  <g>
    <g id="Layer_1">
      <rect x="-3.6" y="-3.6" width="151.3" height="151.3"/>
      <rect class="cls-2" x="68" y="24.1" width="8.8" height="8.8"/>
      <rect class="cls-2" x="65.1" y="12.3" width="14.7" height="14.7" rx=".7" ry=".7"/>
      <rect class="cls-2" x="36.6" y="38.2" width="5.6" height="5.6" transform="translate(-17.4 39.8) rotate(-45)"/>
      <circle class="cls-1" cx="72" cy="80.5" r="47"/>
      <rect class="cls-2" x="29.4" y="31" width="10.3" height="10.3" rx=".7" ry=".7" transform="translate(-15.4 35) rotate(-45)"/>
      <path class="cls-2" d="M72.2,55.6s-.6,0-1.4,0c-1.4,0-2.1.1-2.7.2-.2,0-.5,0-.7.1-.2,0-.5,0-.7.1s-.6.1-.8.2c-.5,0-2.2.6-3.1,1.1-4.7,2-7.6,4.8-9.1,8.6-.3.7-.7,2.5-.7,3.3,0,.6,0,3.3,0,3.7,0,.1,0,.5.1.9.2,1.9,1,3.8,2,5.3,2.3,3.2,6.3,5.2,14.2,7.3,2.3.6,4.2,1.4,4.9,2,.4.4.8,1,.8,1.5,0,.9-.3,1.6-1.2,2-1.2.6-4.1.6-6.7.2-1-.2-2.8-.8-3.9-1.3-1.2-.6-3.8-2.3-4.1-2.7,0,0-.2-.3-.4-.4l-.3-.3-2.4,2.4c-1.3,1.3-3.4,3.4-4.6,4.7l-2.2,2.2.6.6c3.1,3,6.5,4.9,11.5,6.6,1.2.4,2.7.8,3.3.9.1,0,.4,0,.6.1.4,0,1.5.3,2.2.4,1.9.3,6.6.3,8.6,0,7.6-1,13-4.8,14.8-10.4.7-2.2.8-5.4.3-8.3-.1-.7-.5-1.8-1-2.8-1.5-2.9-3.5-4.8-7.3-6.7-1.5-.8-5.2-2-6.8-2.4-1-.2-3.7-1.1-4.6-1.5-1.4-.7-2-1.3-2-2.3,0-.9.8-1.6,1.9-1.9.6-.2,3.1-.3,4-.1,1.4.2,3.5.9,4.6,1.5.8.4,2.1,1.4,3,2.3l.8.7,4.6-4.6c4.1-4.2,4.6-4.7,4.5-4.8-.4-.5-.6-.7-.9-1-2.7-2.7-5.6-4.3-9.9-5.7-2.7-.8-4.7-1.2-7.5-1.4-.6,0-1.4,0-1.7-.1-.3,0-.5,0-.5,0"/>
    </g>
  </g>
</svg>